<?xml version="1.0" encoding="UTF-8" standalone="no"?><svg xmlns="http://www.w3.org/2000/svg" xmlns:xlink="http://www.w3.org/1999/xlink" contentScriptType="application/ecmascript" contentStyleType="text/css" height="557px" preserveAspectRatio="none" style="width:990px;height:557px;" version="1.1" viewBox="0 0 990 557" width="990px" zoomAndPan="magnify"><defs><filter height="300%" id="f1o2a0p4cpqza8" width="300%" x="-1" y="-1"><feGaussianBlur result="blurOut" stdDeviation="2.0"/><feColorMatrix in="blurOut" result="blurOut2" type="matrix" values="0 0 0 0 0 0 0 0 0 0 0 0 0 0 0 0 0 0 .4 0"/><feOffset dx="4.0" dy="4.0" in="blurOut2" result="blurOut3"/><feBlend in="SourceGraphic" in2="blurOut3" mode="normal"/></filter></defs><g><!--MD5=[9c3c9158f78a973931448424fbf17fd2]
cluster TARCH--><rect fill="#FFFFFF" filter="url(#f1o2a0p4cpqza8)" height="409" style="stroke: #000000; stroke-width: 1.5;" width="963" x="10" y="62"/><text fill="#000000" font-family="sans-serif" font-size="14" font-weight="bold" lengthAdjust="spacingAndGlyphs" textLength="54" x="464.5" y="76.9951">TARCH</text><!--MD5=[d7f344a33e6c7c065dd9d9bad37519c8]
cluster m--><rect fill="#FFFFFF" filter="url(#f1o2a0p4cpqza8)" height="180" style="stroke: #000000; stroke-width: 1.5;" width="170" x="187" y="226"/><text fill="#000000" font-family="sans-serif" font-size="14" font-weight="bold" lengthAdjust="spacingAndGlyphs" textLength="67" x="238.5" y="240.9951">Modules</text><!--MD5=[8cf83cf8176f39c5ee0b77fbbc4ed1ef]
cluster dut--><rect fill="#FFFFFF" filter="url(#f1o2a0p4cpqza8)" height="290" style="stroke: #000000; stroke-width: 1.5;" width="157" x="792" y="106"/><text fill="#000000" font-family="sans-serif" font-size="14" font-weight="bold" lengthAdjust="spacingAndGlyphs" textLength="76" x="832.5" y="120.9951">dataUtils</text><ellipse cx="53.7487" cy="335.0236" fill="#FEFECE" filter="url(#f1o2a0p4cpqza8)" rx="27.7487" ry="14.5236" style="stroke: #A80036; stroke-width: 1.5;"/><text fill="#000000" font-family="sans-serif" font-size="14" lengthAdjust="spacingAndGlyphs" textLength="35" x="36.2487" y="339.6721">main</text><ellipse cx="272.1565" cy="303.1313" fill="#FEFECE" filter="url(#f1o2a0p4cpqza8)" rx="61.1565" ry="14.6313" style="stroke: #A80036; stroke-width: 1.5;"/><text fill="#000000" font-family="sans-serif" font-size="14" lengthAdjust="spacingAndGlyphs" textLength="83" x="230.6565" y="307.7797">iGEMTeams</text><ellipse cx="271.8406" cy="367.0236" fill="#FEFECE" filter="url(#f1o2a0p4cpqza8)" rx="46.8406" ry="14.5236" style="stroke: #A80036; stroke-width: 1.5;"/><text fill="#000000" font-family="sans-serif" font-size="14" lengthAdjust="spacingAndGlyphs" textLength="62" x="240.8406" y="371.6721">wikiData</text><ellipse cx="870.3909" cy="365.0236" fill="#FEFECE" filter="url(#f1o2a0p4cpqza8)" rx="41.8909" ry="14.5236" style="stroke: #A80036; stroke-width: 1.5;"/><text fill="#000000" font-family="sans-serif" font-size="14" lengthAdjust="spacingAndGlyphs" textLength="55" x="842.8909" y="369.6721">Utilities</text><ellipse cx="870.3051" cy="301.0236" fill="#FEFECE" filter="url(#f1o2a0p4cpqza8)" rx="43.3051" ry="14.5236" style="stroke: #A80036; stroke-width: 1.5;"/><text fill="#000000" font-family="sans-serif" font-size="14" lengthAdjust="spacingAndGlyphs" textLength="57" x="841.8051" y="305.6721">Logging</text><ellipse cx="870.4117" cy="237.0236" fill="#FEFECE" filter="url(#f1o2a0p4cpqza8)" rx="53.9117" ry="14.5236" style="stroke: #A80036; stroke-width: 1.5;"/><text fill="#000000" font-family="sans-serif" font-size="14" lengthAdjust="spacingAndGlyphs" textLength="72" x="834.4117" y="241.6721">Validation</text><!--MD5=[669718d4b68bf780e3d90c1bc09fac39]
entity DataModule--><rect fill="#FEFECE" filter="url(#f1o2a0p4cpqza8)" height="46.2969" style="stroke: #A80036; stroke-width: 1.5;" width="125" x="808" y="141"/><rect fill="#FEFECE" height="10" style="stroke: #A80036; stroke-width: 1.5;" width="15" x="913" y="146"/><rect fill="#FEFECE" height="2" style="stroke: #A80036; stroke-width: 1.5;" width="4" x="911" y="148"/><rect fill="#FEFECE" height="2" style="stroke: #A80036; stroke-width: 1.5;" width="4" x="911" y="152"/><text fill="#000000" font-family="sans-serif" font-size="14" lengthAdjust="spacingAndGlyphs" textLength="85" x="823" y="173.9951">DataModule</text><!--MD5=[5b1a34fb7ccf0e6c98f9e955f705d4f2]
entity di--><rect fill="#FEFECE" filter="url(#f1o2a0p4cpqza8)" height="36.2969" style="stroke: #000000; stroke-width: 1.5;" width="78" x="14.5" y="9"/><text fill="#000000" font-family="sans-serif" font-size="14" lengthAdjust="spacingAndGlyphs" textLength="58" x="24.5" y="31.9951">DATA IN</text><!--MD5=[f41a38a365ba14fd60501e4507c35dd0]
entity do--><rect fill="#FEFECE" filter="url(#f1o2a0p4cpqza8)" height="36.2969" style="stroke: #000000; stroke-width: 1.5;" width="93" x="7" y="492"/><text fill="#000000" font-family="sans-serif" font-size="14" lengthAdjust="spacingAndGlyphs" textLength="73" x="17" y="514.9951">DATA OUT</text><path d="M161,6 L161,22.51 L92.7075,26.824 L161,30.51 L161,46.2656 A0,0 0 0 0 161,46.2656 L383,46.2656 A0,0 0 0 0 383,46.2656 L383,16 L373,6 L161,6 A0,0 0 0 0 161,6 " fill="#FBFB77" filter="url(#f1o2a0p4cpqza8)" style="stroke: #A80036; stroke-width: 1.0;"/><path d="M373,6 L373,16 L383,16 L373,6 " fill="#FBFB77" style="stroke: #A80036; stroke-width: 1.0;"/><text fill="#000000" font-family="sans-serif" font-size="13" lengthAdjust="spacingAndGlyphs" textLength="149" x="167" y="23.0669">Messy, undocumented,</text><text fill="#000000" font-family="sans-serif" font-size="13" lengthAdjust="spacingAndGlyphs" textLength="201" x="167" y="38.1997">multi-format, hard to work with</text><path d="M168,487.5 L168,508.6194 L100.15,511.0543 L168,516.6194 L168,542.8984 A0,0 0 0 0 168,542.8984 L376,542.8984 A0,0 0 0 0 376,542.8984 L376,497.5 L366,487.5 L168,487.5 A0,0 0 0 0 168,487.5 " fill="#FBFB77" filter="url(#f1o2a0p4cpqza8)" style="stroke: #A80036; stroke-width: 1.0;"/><path d="M366,487.5 L366,497.5 L376,497.5 L366,487.5 " fill="#FBFB77" style="stroke: #A80036; stroke-width: 1.0;"/><text fill="#000000" font-family="sans-serif" font-size="13" lengthAdjust="spacingAndGlyphs" textLength="129" x="174" y="504.5669">Clean, documented,</text><text fill="#000000" font-family="sans-serif" font-size="13" lengthAdjust="spacingAndGlyphs" textLength="183" x="174" y="519.6997">conforms to known schema,</text><text fill="#000000" font-family="sans-serif" font-size="13" lengthAdjust="spacingAndGlyphs" textLength="114" x="174" y="534.8325">easy to work with</text><path d="M487,490.5 L487,545.8984 L702,545.8984 L702,500.5 L692,490.5 L487,490.5 " fill="#FBFB77" filter="url(#f1o2a0p4cpqza8)" style="stroke: #A80036; stroke-width: 1.0;"/><path d="M692,490.5 L692,500.5 L702,500.5 L692,490.5 " fill="#FBFB77" style="stroke: #A80036; stroke-width: 1.0;"/><text fill="#000000" font-family="sans-serif" font-size="13" lengthAdjust="spacingAndGlyphs" textLength="190" x="493" y="507.5669">Has identical relationship with</text><text fill="#000000" font-family="sans-serif" font-size="13" lengthAdjust="spacingAndGlyphs" textLength="180" x="493" y="522.6997">dataUtils; arrows not shown</text><text fill="#000000" font-family="sans-serif" font-size="13" lengthAdjust="spacingAndGlyphs" textLength="89" x="493" y="537.8325">for readability</text><!--MD5=[e412caee032dd9b4431c43762a74bb36]
reverse link do to main--><path d="M53.5,486.6087 C53.5,440.975 53.5,395.342 53.5,349.708 " fill="none" id="do-backto-main" style="stroke: #A80036; stroke-width: 1.0;"/><polygon fill="#A80036" points="53.5,491.8848,57.5,482.8848,53.5,486.8848,49.5,482.8848,53.5,491.8848" style="stroke: #A80036; stroke-width: 1.0;"/><!--MD5=[6d96fe76e0ec6f64adb8b4a6e7f33f01]
reverse link main to di--><path d="M53.5,315.155 C53.5,225.118 53.5,135.08 53.5,45.042 " fill="none" id="main-backto-di" style="stroke: #A80036; stroke-width: 1.0;"/><polygon fill="#A80036" points="53.5,320.262,57.5,311.262,53.5,315.262,49.5,311.262,53.5,320.262" style="stroke: #A80036; stroke-width: 1.0;"/><!--MD5=[c8bbb30e55199c2a0374b5d1dfff77e1]
link main to module1--><path d="M85.1801,330.465 C118.817,325.494 173.501,317.411 214.859,311.298 " fill="none" id="main-module1" style="stroke: #A80036; stroke-width: 1.0;"/><polygon fill="#A80036" points="219.834,310.563,210.3456,307.9227,214.8878,311.2945,211.516,315.8367,219.834,310.563" style="stroke: #A80036; stroke-width: 1.0;"/><polygon fill="#A80036" points="80.1856,331.204,89.6737,333.8452,85.1319,330.473,88.5041,325.9312,80.1856,331.204" style="stroke: #A80036; stroke-width: 1.0;"/><!--MD5=[40c0d33f21323a0d1eb74f27fbfa5f8a]
link main to module2--><path d="M85.5692,339.592 C121.908,344.963 182.424,353.908 224.395,360.112 " fill="none" id="main-module2" style="stroke: #A80036; stroke-width: 1.0;"/><polygon fill="#A80036" points="229.419,360.854,221.0995,355.5827,224.4726,360.1239,219.9314,363.4969,229.419,360.854" style="stroke: #A80036; stroke-width: 1.0;"/><polygon fill="#A80036" points="80.1856,338.796,88.5041,344.0688,85.1319,339.527,89.6737,336.1548,80.1856,338.796" style="stroke: #A80036; stroke-width: 1.0;"/><!--MD5=[dad2504cab89f8f375e4ed3a9c7a30d4]
link module2 to module1--><path d="M272,352 C272,342.22 272,332.441 272,322.661 " fill="none" id="module2-to-module1" style="stroke: #A80036; stroke-width: 1.0; stroke-dasharray: 7.0,7.0;"/><polygon fill="#A80036" points="272,317.547,268,326.547,272,322.547,276,326.547,272,317.547" style="stroke: #A80036; stroke-width: 1.0;"/><!--MD5=[fa739f67f20bc696a4a9934be2d7d67f]
link module1 to log--><path d="M333.202,302.798 C451.862,302.4 713.778,301.522 821.643,301.16 " fill="none" id="module1-to-log" style="stroke: #A80036; stroke-width: 1.0;"/><polygon fill="#A80036" points="826.662,301.144,817.6483,297.1749,821.662,301.1611,817.6758,305.1748,826.662,301.144" style="stroke: #A80036; stroke-width: 1.0;"/><text fill="#000000" font-family="sans-serif" font-size="13" lengthAdjust="spacingAndGlyphs" textLength="201" x="494" y="297.0669">Enforces a standard for logging</text><!--MD5=[c559b4b552a74d703cf3cefce0e2378b]
link module1 to utils--><path d="M312.641,313.88 C333.649,319.809 359.832,327.461 383,335 C410.406,343.919 415.658,351.77 444,357 C580.684,382.221 746.253,374.695 824.446,368.931 " fill="none" id="module1-to-utils" style="stroke: #A80036; stroke-width: 1.0;"/><polygon fill="#A80036" points="829.469,368.554,820.1948,365.239,824.483,368.9283,820.7937,373.2165,829.469,368.554" style="stroke: #A80036; stroke-width: 1.0;"/><text fill="#000000" font-family="sans-serif" font-size="13" lengthAdjust="spacingAndGlyphs" textLength="0" x="596.5" y="323.0669"/><text fill="#000000" font-family="sans-serif" font-size="13" lengthAdjust="spacingAndGlyphs" textLength="0" x="596.5" y="338.1997"/><text fill="#000000" font-family="sans-serif" font-size="13" lengthAdjust="spacingAndGlyphs" textLength="197" x="496" y="353.3325">Provides general use functions</text><!--MD5=[59389cd3446c009e17ce8ff16aadeea7]
reverse link module1 to validate--><path d="M327.661,293.973 C368.933,287.232 422.075,278.733 444,276 C578.525,259.233 737.822,246.53 817.968,240.633 " fill="none" id="module1-backto-validate" style="stroke: #A80036; stroke-width: 1.0;"/><polygon fill="#A80036" points="322.689,294.786,332.2167,297.2806,327.6234,293.9788,330.9252,289.3856,322.689,294.786" style="stroke: #A80036; stroke-width: 1.0;"/><text fill="#000000" font-family="sans-serif" font-size="13" lengthAdjust="spacingAndGlyphs" textLength="0" x="596.5" y="227.0669"/><text fill="#000000" font-family="sans-serif" font-size="13" lengthAdjust="spacingAndGlyphs" textLength="157" x="516" y="242.1997">Validates module output</text><!--MD5=[1a42843fd3bae6f0eb3b881ddbbe1ce2]
link DataModule to m--><path d="M807.737,166.803 C724.532,171.326 572.092,182.253 444,206 C424.9283,209.5358 404.8873,214.1777 385.5091,219.1672 C375.82,221.662 366.2966,224.2436 357.143,226.8174 " fill="none" id="DataModule-to-m" style="stroke: #A80036; stroke-width: 1.0; stroke-dasharray: 7.0,7.0;"/><polygon fill="#A80036" points="357.143,226.8174,366.8897,228.232,361.9563,225.464,364.7243,220.5306,357.143,226.8174" style="stroke: #A80036; stroke-width: 1.0;"/><text fill="#000000" font-family="sans-serif" font-size="13" lengthAdjust="spacingAndGlyphs" textLength="299" x="445" y="166.0669">Sets and enforces schema for writing modules</text><!--MD5=[6b1331802efef484a65e4dc57b29278c]
link module2 to GMN365694--><path d="M293.499,379.923 C325.04,399.479 387.73,437.054 444,463 C465.473,472.901 489.279,482.3234 511.464,490.4825 " fill="none" id="module2-GMN365694" style="stroke: #A80036; stroke-width: 1.0; stroke-dasharray: 7.0,7.0;"/><!--MD5=[eb57e3f29340111932e278cb9b4e5ade]
@startuml
left to right direction
rectangle "DATA IN" as di
rectangle "DATA OUT" as do


rectangle TARCH {
  do <- (main)
  (main) <- di
  rectangle Modules as m{
		"iGEMTeams" as (module1)
		"wikiData" as (module2)
  		(main) <- -> (module1)
  		(main) <- -> (module2)
        (module2) .> (module1)
  }
  rectangle dataUtils as dut {
  
        "Utilities" as (utils)
        "Logging" as (log)
        "Validation" as (validate)
        
        (module1) - - -> (log) : Enforces a standard for logging
        (module1) - - -> (utils) : \n\nProvides general use functions
        (module1) <- - - (validate) : \nValidates module output
        
        [DataModule] .> m : Sets and enforces schema for writing modules
  }
}
  
  
  note right of di{
    Messy, undocumented,
    multi-format, hard to work with
  }
  note right of do{
    Clean, documented,
    conforms to known schema, 
    easy to work with
  }
  
    note right of module2{
    Has identical relationship with 
    dataUtils; arrows not shown
    for readability
  }
@enduml

PlantUML version 1.2020.17beta5(Unknown compile time)
(GPL source distribution)
Java Runtime: Java(TM) SE Runtime Environment
JVM: Java HotSpot(TM) 64-Bit Server VM
Default Encoding: UTF-8
Language: en
Country: US
--></g></svg>