<?xml version="1.0" encoding="UTF-8" standalone="no"?><svg xmlns="http://www.w3.org/2000/svg" xmlns:xlink="http://www.w3.org/1999/xlink" contentScriptType="application/ecmascript" contentStyleType="text/css" height="418px" preserveAspectRatio="none" style="width:394px;height:418px;" version="1.1" viewBox="0 0 394 418" width="394px" zoomAndPan="magnify"><defs><filter height="300%" id="fw1bxoji1q9zz" width="300%" x="-1" y="-1"><feGaussianBlur result="blurOut" stdDeviation="2.0"/><feColorMatrix in="blurOut" result="blurOut2" type="matrix" values="0 0 0 0 0 0 0 0 0 0 0 0 0 0 0 0 0 0 .4 0"/><feOffset dx="4.0" dy="4.0" in="blurOut2" result="blurOut3"/><feBlend in="SourceGraphic" in2="blurOut3" mode="normal"/></filter></defs><g><!--MD5=[9c3c9158f78a973931448424fbf17fd2]
cluster TARCH--><rect fill="#FFFFFF" filter="url(#fw1bxoji1q9zz)" height="273" style="stroke: #000000; stroke-width: 1.5;" width="362" x="10" y="62"/><text fill="#000000" font-family="sans-serif" font-size="14" font-weight="bold" lengthAdjust="spacingAndGlyphs" textLength="54" x="164" y="76.9951">TARCH</text><!--MD5=[b81d475bff8382f6de843883a7fc380d]
cluster Modules--><rect fill="#FFFFFF" filter="url(#fw1bxoji1q9zz)" height="206" style="stroke: #000000; stroke-width: 1.5;" width="154" x="194" y="105"/><text fill="#000000" font-family="sans-serif" font-size="14" font-weight="bold" lengthAdjust="spacingAndGlyphs" textLength="67" x="237.5" y="119.9951">Modules</text><ellipse cx="53.7487" cy="219.0236" fill="#FEFECE" filter="url(#fw1bxoji1q9zz)" rx="27.7487" ry="14.5236" style="stroke: #A80036; stroke-width: 1.5;"/><text fill="#000000" font-family="sans-serif" font-size="14" lengthAdjust="spacingAndGlyphs" textLength="35" x="36.2487" y="223.6721">main</text><ellipse cx="271.1565" cy="155.1313" fill="#FEFECE" filter="url(#fw1bxoji1q9zz)" rx="61.1565" ry="14.6313" style="stroke: #A80036; stroke-width: 1.5;"/><text fill="#000000" font-family="sans-serif" font-size="14" lengthAdjust="spacingAndGlyphs" textLength="83" x="229.6565" y="159.7797">iGEMTeams</text><ellipse cx="270.8406" cy="219.0236" fill="#FEFECE" filter="url(#fw1bxoji1q9zz)" rx="46.8406" ry="14.5236" style="stroke: #A80036; stroke-width: 1.5;"/><text fill="#000000" font-family="sans-serif" font-size="14" lengthAdjust="spacingAndGlyphs" textLength="62" x="239.8406" y="223.6721">wikiData</text><ellipse cx="271.1489" cy="282.1191" fill="#FEFECE" filter="url(#fw1bxoji1q9zz)" rx="15.6489" ry="13.1191" style="stroke: #A80036; stroke-width: 1.5;"/><text fill="#000000" font-family="sans-serif" font-size="14" lengthAdjust="spacingAndGlyphs" textLength="15" x="263.6489" y="286.7676">...</text><!--MD5=[5b1a34fb7ccf0e6c98f9e955f705d4f2]
entity di--><rect fill="#FEFECE" filter="url(#fw1bxoji1q9zz)" height="36.2969" style="stroke: #000000; stroke-width: 1.5;" width="78" x="14.5" y="9"/><text fill="#000000" font-family="sans-serif" font-size="14" lengthAdjust="spacingAndGlyphs" textLength="58" x="24.5" y="31.9951">DATA IN</text><!--MD5=[f41a38a365ba14fd60501e4507c35dd0]
entity do--><rect fill="#FEFECE" filter="url(#fw1bxoji1q9zz)" height="36.2969" style="stroke: #000000; stroke-width: 1.5;" width="93" x="7" y="356"/><text fill="#000000" font-family="sans-serif" font-size="14" lengthAdjust="spacingAndGlyphs" textLength="73" x="17" y="378.9951">DATA OUT</text><path d="M160,6 L160,22.512 L92.531,26.824 L160,30.512 L160,46.2656 A0,0 0 0 0 160,46.2656 L382,46.2656 A0,0 0 0 0 382,46.2656 L382,16 L372,6 L160,6 A0,0 0 0 0 160,6 " fill="#FBFB77" filter="url(#fw1bxoji1q9zz)" style="stroke: #A80036; stroke-width: 1.0;"/><path d="M372,6 L372,16 L382,16 L372,6 " fill="#FBFB77" style="stroke: #A80036; stroke-width: 1.0;"/><text fill="#000000" font-family="sans-serif" font-size="13" lengthAdjust="spacingAndGlyphs" textLength="149" x="166" y="23.0669">Messy, undocumented,</text><text fill="#000000" font-family="sans-serif" font-size="13" lengthAdjust="spacingAndGlyphs" textLength="201" x="166" y="38.1997">multi-format, hard to work with</text><path d="M167,351.5 L167,372.6039 L100.202,375.0604 L167,380.6039 L167,406.8984 A0,0 0 0 0 167,406.8984 L375,406.8984 A0,0 0 0 0 375,406.8984 L375,361.5 L365,351.5 L167,351.5 A0,0 0 0 0 167,351.5 " fill="#FBFB77" filter="url(#fw1bxoji1q9zz)" style="stroke: #A80036; stroke-width: 1.0;"/><path d="M365,351.5 L365,361.5 L375,361.5 L365,351.5 " fill="#FBFB77" style="stroke: #A80036; stroke-width: 1.0;"/><text fill="#000000" font-family="sans-serif" font-size="13" lengthAdjust="spacingAndGlyphs" textLength="129" x="173" y="368.5669">Clean, documented,</text><text fill="#000000" font-family="sans-serif" font-size="13" lengthAdjust="spacingAndGlyphs" textLength="183" x="173" y="383.6997">conforms to known schema,</text><text fill="#000000" font-family="sans-serif" font-size="13" lengthAdjust="spacingAndGlyphs" textLength="114" x="173" y="398.8325">easy to work with</text><!--MD5=[e412caee032dd9b4431c43762a74bb36]
reverse link do to main--><path d="M53.5,350.5879 C53.5,311.625 53.5,272.662 53.5,233.699 " fill="none" id="do-backto-main" style="stroke: #A80036; stroke-width: 1.0;"/><polygon fill="#A80036" points="53.5,355.8359,57.5,346.8359,53.5,350.8359,49.5,346.8359,53.5,355.8359" style="stroke: #A80036; stroke-width: 1.0;"/><!--MD5=[6d96fe76e0ec6f64adb8b4a6e7f33f01]
reverse link main to di--><path d="M53.5,199.084 C53.5,147.727 53.5,96.371 53.5,45.015 " fill="none" id="main-backto-di" style="stroke: #A80036; stroke-width: 1.0;"/><polygon fill="#A80036" points="53.5,204.375,57.5,195.375,53.5,199.375,49.5,195.375,53.5,204.375" style="stroke: #A80036; stroke-width: 1.0;"/><!--MD5=[c8bbb30e55199c2a0374b5d1dfff77e1]
link main to module1--><path d="M82.4635,210.423 C103.712,203.929 133.672,194.822 160,187 C181.882,180.499 206.253,173.395 226.484,167.536 " fill="none" id="main-module1" style="stroke: #A80036; stroke-width: 1.0;"/><polygon fill="#A80036" points="231.534,166.074,221.7768,164.7337,226.7311,167.464,224.0008,172.4183,231.534,166.074" style="stroke: #A80036; stroke-width: 1.0;"/><polygon fill="#A80036" points="77.5274,211.933,87.3037,213.126,82.3088,210.4707,84.9641,205.4758,77.5274,211.933" style="stroke: #A80036; stroke-width: 1.0;"/><!--MD5=[40c0d33f21323a0d1eb74f27fbfa5f8a]
link main to module2--><path d="M86.55,219 C121.429,219 177.695,219 218.728,219 " fill="none" id="main-module2" style="stroke: #A80036; stroke-width: 1.0;"/><polygon fill="#A80036" points="223.906,219,214.906,215,218.906,219,214.906,223,223.906,219" style="stroke: #A80036; stroke-width: 1.0;"/><polygon fill="#A80036" points="81.3575,219,90.3575,223,86.3575,219,90.3575,215,81.3575,219" style="stroke: #A80036; stroke-width: 1.0;"/><!--MD5=[397d713fbec5adaaeb53a493320bde5a]
link main to module3--><path d="M82.4446,227.641 C103.683,234.168 133.64,243.289 160,251 C191.91,260.335 229.175,270.731 251.113,276.8 " fill="none" id="main-module3" style="stroke: #A80036; stroke-width: 1.0;"/><polygon fill="#A80036" points="256.083,278.173,248.4734,271.9205,251.2636,276.8413,246.3427,279.6315,256.083,278.173" style="stroke: #A80036; stroke-width: 1.0;"/><polygon fill="#A80036" points="77.5109,226.123,84.9366,232.5928,82.2898,227.5934,87.2892,224.9466,77.5109,226.123" style="stroke: #A80036; stroke-width: 1.0;"/><!--MD5=[dad2504cab89f8f375e4ed3a9c7a30d4]
link module2 to module1--><path d="M271,204.5 C271,194.621 271,184.741 271,174.862 " fill="none" id="module2-to-module1" style="stroke: #A80036; stroke-width: 1.0; stroke-dasharray: 7.0,7.0;"/><polygon fill="#A80036" points="271,169.695,267,178.695,271,174.695,275,178.695,271,169.695" style="stroke: #A80036; stroke-width: 1.0;"/><!--MD5=[79e4724f230257482d93414534a4561f]
@startuml
left to right direction

rectangle "DATA IN" as di
rectangle "DATA OUT" as do


rectangle TARCH {
  do <- (main)
  (main) <- di
  rectangle Modules {
		"iGEMTeams" as (module1)
		"wikiData" as (module2)
		"..." as (module3)
  		(main) <- -> (module1)
  		(main) <- -> (module2)
  		(main) <- -> (module3)
        (module2) .> (module1)
  }
}
  
  
  note right of di{
    Messy, undocumented,
    multi-format, hard to work with
  }
  note right of do{
    Clean, documented,
    conforms to known schema, 
    easy to work with
  }
@enduml

PlantUML version 1.2020.17beta5(Unknown compile time)
(GPL source distribution)
Java Runtime: Java(TM) SE Runtime Environment
JVM: Java HotSpot(TM) 64-Bit Server VM
Default Encoding: UTF-8
Language: en
Country: US
--></g></svg>