<?xml version="1.0" encoding="UTF-8" standalone="no"?><svg xmlns="http://www.w3.org/2000/svg" xmlns:xlink="http://www.w3.org/1999/xlink" contentScriptType="application/ecmascript" contentStyleType="text/css" height="1036px" preserveAspectRatio="none" style="width:1353px;height:1036px;" version="1.1" viewBox="0 0 1353 1036" width="1353px" zoomAndPan="magnify"><defs><filter height="300%" id="fvirwllji5rm0" width="300%" x="-1" y="-1"><feGaussianBlur result="blurOut" stdDeviation="2.0"/><feColorMatrix in="blurOut" result="blurOut2" type="matrix" values="0 0 0 0 0 0 0 0 0 0 0 0 0 0 0 0 0 0 .4 0"/><feOffset dx="4.0" dy="4.0" in="blurOut2" result="blurOut3"/><feBlend in="SourceGraphic" in2="blurOut3" mode="normal"/></filter></defs><g><!--MD5=[20f3927d7d026c7ceef51d433c9fef64]
cluster Documentation--><polygon fill="#FFFFFF" filter="url(#fvirwllji5rm0)" points="286.5,6,417.5,6,424.5,28.2969,427.5,28.2969,427.5,103,286.5,103,286.5,6" style="stroke: #000000; stroke-width: 1.5;"/><line style="stroke: #000000; stroke-width: 1.5;" x1="286.5" x2="424.5" y1="28.2969" y2="28.2969"/><text fill="#000000" font-family="sans-serif" font-size="14" font-weight="bold" lengthAdjust="spacingAndGlyphs" textLength="125" x="290.5" y="20.9951">Documentation</text><!--MD5=[9c3c9158f78a973931448424fbf17fd2]
cluster TARCH--><polygon fill="#FFFFFF" filter="url(#fvirwllji5rm0)" points="357.5,135,417.5,135,424.5,157.2969,995.5,157.2969,995.5,930,357.5,930,357.5,135" style="stroke: #000000; stroke-width: 1.5;"/><line style="stroke: #000000; stroke-width: 1.5;" x1="357.5" x2="424.5" y1="157.2969" y2="157.2969"/><text fill="#000000" font-family="sans-serif" font-size="14" font-weight="bold" lengthAdjust="spacingAndGlyphs" textLength="54" x="361.5" y="149.9951">TARCH</text><!--MD5=[e80bd461753d6c5ec111731420959425]
cluster Main--><rect fill="#DDDDDD" filter="url(#fvirwllji5rm0)" height="137" style="stroke: #000000; stroke-width: 1.5;" width="146" x="770.5" y="186"/><text fill="#000000" font-family="sans-serif" font-size="14" font-weight="bold" lengthAdjust="spacingAndGlyphs" textLength="39" x="824" y="200.9951">Main</text><!--MD5=[b81d475bff8382f6de843883a7fc380d]
cluster Modules--><polygon fill="#FFFFFF" filter="url(#fvirwllji5rm0)" points="423.5,347,496.5,347,503.5,369.2969,826.5,369.2969,826.5,660,423.5,660,423.5,347" style="stroke: #000000; stroke-width: 1.5;"/><line style="stroke: #000000; stroke-width: 1.5;" x1="423.5" x2="503.5" y1="369.2969" y2="369.2969"/><text fill="#000000" font-family="sans-serif" font-size="14" font-weight="bold" lengthAdjust="spacingAndGlyphs" textLength="67" x="427.5" y="361.9951">Modules</text><!--MD5=[c8a0c2e56b5a13f0ec56bf38e04afb75]
cluster iGEMTeams--><rect fill="#DDDDDD" filter="url(#fvirwllji5rm0)" height="214" style="stroke: #000000; stroke-width: 1.5;" width="140" x="662.5" y="406"/><text fill="#000000" font-family="sans-serif" font-size="14" font-weight="bold" lengthAdjust="spacingAndGlyphs" textLength="94" x="685.5" y="420.9951">iGEMTeams</text><!--MD5=[3d9dd13cbf0c356ed587f48aa7cfed2a]
cluster wikiData--><rect fill="#DDDDDD" filter="url(#fvirwllji5rm0)" height="230" style="stroke: #000000; stroke-width: 1.5;" width="175" x="455.5" y="398"/><text fill="#000000" font-family="sans-serif" font-size="14" font-weight="bold" lengthAdjust="spacingAndGlyphs" textLength="71" x="507.5" y="412.9951">wikiData</text><!--MD5=[24c1d3c3dfb7c030c0e7e44d3be85bbf]
cluster DataUtils--><rect fill="#DDDDDD" filter="url(#fvirwllji5rm0)" height="214" style="stroke: #000000; stroke-width: 1.5;" width="566" x="397.5" y="684"/><text fill="#000000" font-family="sans-serif" font-size="14" font-weight="bold" lengthAdjust="spacingAndGlyphs" textLength="77" x="642" y="698.9951">DataUtils</text><!--MD5=[a6172263536721aff71255a35372b272]
entity Sphinx--><rect fill="#FFFFFF" filter="url(#fvirwllji5rm0)" height="46.2969" style="stroke: #000000; stroke-width: 1.5;" width="89" x="321" y="41"/><path d="M350.6667,41 L350.6667,46 L343.6667,53 L321,53 " fill="none" style="stroke: #000000; stroke-width: 1.5;"/><text fill="#000000" font-family="sans-serif" font-size="14" lengthAdjust="spacingAndGlyphs" textLength="49" x="336" y="73.9951">Sphinx</text><!--MD5=[4520fda4e10d4d791ce48fe025810cd4]
class main--><rect fill="#FEFECE" filter="url(#fvirwllji5rm0)" height="86.4141" id="main" style="stroke: #A80036; stroke-width: 1.5;" width="113" x="787" y="221"/><ellipse cx="825.85" cy="237" fill="#ADD1B2" rx="11" ry="11" style="stroke: #A80036; stroke-width: 1.0;"/><path d="M828.1938,232.6719 C827.2563,232.2344 826.6625,232.0938 825.7875,232.0938 C823.1625,232.0938 821.1625,234.1719 821.1625,236.8906 L821.1625,238.0156 C821.1625,240.5938 823.2719,242.4844 826.1625,242.4844 C827.3813,242.4844 828.5375,242.1875 829.2875,241.6406 C829.8656,241.2344 830.1938,240.7813 830.1938,240.3906 C830.1938,239.9375 829.8031,239.5469 829.3344,239.5469 C829.1156,239.5469 828.9125,239.625 828.725,239.8125 C828.2719,240.2969 828.2719,240.2969 828.0844,240.3906 C827.6625,240.6563 826.975,240.7813 826.2094,240.7813 C824.1625,240.7813 822.8656,239.6875 822.8656,237.9844 L822.8656,236.8906 C822.8656,235.1094 824.1156,233.7969 825.85,233.7969 C826.4281,233.7969 827.0375,233.9531 827.5063,234.2031 C827.9906,234.4844 828.1625,234.7031 828.2563,235.1094 C828.3188,235.5156 828.35,235.6406 828.4906,235.7656 C828.6313,235.9063 828.8656,236.0156 829.0844,236.0156 C829.35,236.0156 829.6156,235.875 829.7875,235.6563 C829.8969,235.5 829.9281,235.3125 829.9281,234.8906 L829.9281,233.4688 C829.9281,233.0313 829.9125,232.9063 829.8188,232.75 C829.6625,232.4844 829.3813,232.3438 829.0844,232.3438 C828.7875,232.3438 828.5844,232.4375 828.3656,232.75 L828.1938,232.6719 Z "/><text fill="#000000" font-family="sans-serif" font-size="12" lengthAdjust="spacingAndGlyphs" textLength="28" x="845.15" y="241.1543">main</text><line style="stroke: #A80036; stroke-width: 1.5;" x1="788" x2="899" y1="253" y2="253"/><text fill="#000000" font-family="sans-serif" font-size="11" lengthAdjust="spacingAndGlyphs" textLength="100" x="793" y="267.2104">MasterFramework</text><line style="stroke: #A80036; stroke-width: 1.5;" x1="788" x2="899" y1="273.8047" y2="273.8047"/><text fill="#000000" font-family="sans-serif" font-size="11" lengthAdjust="spacingAndGlyphs" textLength="101" x="793" y="288.0151">getDataModules()</text><text fill="#000000" font-family="sans-serif" font-size="11" lengthAdjust="spacingAndGlyphs" textLength="54" x="793" y="300.8198">toposort()</text><!--MD5=[0de4b0fee9af6aaf1ada62296be86510]
class DataHandler1--><rect codeLine="75" fill="#FEFECE" filter="url(#fvirwllji5rm0)" height="163.2422" id="DataHandler1" style="stroke: #A80036; stroke-width: 1.5;" width="107" x="679" y="441"/><ellipse cx="694.45" cy="457" fill="#ADD1B2" rx="11" ry="11" style="stroke: #A80036; stroke-width: 1.0;"/><path d="M696.7938,452.6719 C695.8563,452.2344 695.2625,452.0938 694.3875,452.0938 C691.7625,452.0938 689.7625,454.1719 689.7625,456.8906 L689.7625,458.0156 C689.7625,460.5938 691.8719,462.4844 694.7625,462.4844 C695.9813,462.4844 697.1375,462.1875 697.8875,461.6406 C698.4656,461.2344 698.7938,460.7813 698.7938,460.3906 C698.7938,459.9375 698.4031,459.5469 697.9344,459.5469 C697.7156,459.5469 697.5125,459.625 697.325,459.8125 C696.8719,460.2969 696.8719,460.2969 696.6844,460.3906 C696.2625,460.6563 695.575,460.7813 694.8094,460.7813 C692.7625,460.7813 691.4656,459.6875 691.4656,457.9844 L691.4656,456.8906 C691.4656,455.1094 692.7156,453.7969 694.45,453.7969 C695.0281,453.7969 695.6375,453.9531 696.1063,454.2031 C696.5906,454.4844 696.7625,454.7031 696.8563,455.1094 C696.9188,455.5156 696.95,455.6406 697.0906,455.7656 C697.2313,455.9063 697.4656,456.0156 697.6844,456.0156 C697.95,456.0156 698.2156,455.875 698.3875,455.6563 C698.4969,455.5 698.5281,455.3125 698.5281,454.8906 L698.5281,453.4688 C698.5281,453.0313 698.5125,452.9063 698.4188,452.75 C698.2625,452.4844 697.9813,452.3438 697.6844,452.3438 C697.3875,452.3438 697.1844,452.4375 696.9656,452.75 L696.7938,452.6719 Z "/><text fill="#000000" font-family="sans-serif" font-size="12" lengthAdjust="spacingAndGlyphs" textLength="74" x="708.55" y="461.1543">DataHandler</text><line style="stroke: #A80036; stroke-width: 1.5;" x1="680" x2="785" y1="473" y2="473"/><text fill="#000000" font-family="sans-serif" font-size="11" lengthAdjust="spacingAndGlyphs" textLength="33" x="685" y="487.2104">name</text><text fill="#000000" font-family="sans-serif" font-size="11" lengthAdjust="spacingAndGlyphs" textLength="38" x="685" y="500.0151">source</text><text fill="#000000" font-family="sans-serif" font-size="11" lengthAdjust="spacingAndGlyphs" textLength="50" x="685" y="512.8198">depends</text><text fill="#000000" font-family="sans-serif" font-size="11" lengthAdjust="spacingAndGlyphs" textLength="95" x="685" y="525.6245">productionReady</text><line style="stroke: #A80036; stroke-width: 1.5;" x1="680" x2="785" y1="532.2188" y2="532.2188"/><text fill="#000000" font-family="sans-serif" font-size="11" lengthAdjust="spacingAndGlyphs" textLength="71" x="685" y="546.4292">importData()</text><text fill="#000000" font-family="sans-serif" font-size="11" lengthAdjust="spacingAndGlyphs" textLength="80" x="685" y="559.2339">prepareData()</text><text fill="#000000" font-family="sans-serif" font-size="11" lengthAdjust="spacingAndGlyphs" textLength="86" x="685" y="572.0386">annotateData()</text><text fill="#000000" font-family="sans-serif" font-size="11" lengthAdjust="spacingAndGlyphs" textLength="73" x="685" y="584.8433">mergeData()</text><text fill="#000000" font-family="sans-serif" font-size="11" lengthAdjust="spacingAndGlyphs" textLength="84" x="685" y="597.6479">describeData()</text><!--MD5=[0db88c4efea9693748b66240f6e8953a]
class DataHandler2--><rect codeLine="76" fill="#FEFECE" filter="url(#fvirwllji5rm0)" height="163.2422" id="DataHandler2" style="stroke: #A80036; stroke-width: 1.5;" width="107" x="499" y="441"/><ellipse cx="514.45" cy="457" fill="#ADD1B2" rx="11" ry="11" style="stroke: #A80036; stroke-width: 1.0;"/><path d="M516.7938,452.6719 C515.8563,452.2344 515.2625,452.0938 514.3875,452.0938 C511.7625,452.0938 509.7625,454.1719 509.7625,456.8906 L509.7625,458.0156 C509.7625,460.5938 511.8719,462.4844 514.7625,462.4844 C515.9813,462.4844 517.1375,462.1875 517.8875,461.6406 C518.4656,461.2344 518.7938,460.7813 518.7938,460.3906 C518.7938,459.9375 518.4031,459.5469 517.9344,459.5469 C517.7156,459.5469 517.5125,459.625 517.325,459.8125 C516.8719,460.2969 516.8719,460.2969 516.6844,460.3906 C516.2625,460.6563 515.575,460.7813 514.8094,460.7813 C512.7625,460.7813 511.4656,459.6875 511.4656,457.9844 L511.4656,456.8906 C511.4656,455.1094 512.7156,453.7969 514.45,453.7969 C515.0281,453.7969 515.6375,453.9531 516.1063,454.2031 C516.5906,454.4844 516.7625,454.7031 516.8563,455.1094 C516.9188,455.5156 516.95,455.6406 517.0906,455.7656 C517.2313,455.9063 517.4656,456.0156 517.6844,456.0156 C517.95,456.0156 518.2156,455.875 518.3875,455.6563 C518.4969,455.5 518.5281,455.3125 518.5281,454.8906 L518.5281,453.4688 C518.5281,453.0313 518.5125,452.9063 518.4188,452.75 C518.2625,452.4844 517.9813,452.3438 517.6844,452.3438 C517.3875,452.3438 517.1844,452.4375 516.9656,452.75 L516.7938,452.6719 Z "/><text fill="#000000" font-family="sans-serif" font-size="12" lengthAdjust="spacingAndGlyphs" textLength="74" x="528.55" y="461.1543">DataHandler</text><line style="stroke: #A80036; stroke-width: 1.5;" x1="500" x2="605" y1="473" y2="473"/><text fill="#000000" font-family="sans-serif" font-size="11" lengthAdjust="spacingAndGlyphs" textLength="33" x="505" y="487.2104">name</text><text fill="#000000" font-family="sans-serif" font-size="11" lengthAdjust="spacingAndGlyphs" textLength="38" x="505" y="500.0151">source</text><text fill="#000000" font-family="sans-serif" font-size="11" lengthAdjust="spacingAndGlyphs" textLength="50" x="505" y="512.8198">depends</text><text fill="#000000" font-family="sans-serif" font-size="11" lengthAdjust="spacingAndGlyphs" textLength="95" x="505" y="525.6245">productionReady</text><line style="stroke: #A80036; stroke-width: 1.5;" x1="500" x2="605" y1="532.2188" y2="532.2188"/><text fill="#000000" font-family="sans-serif" font-size="11" lengthAdjust="spacingAndGlyphs" textLength="71" x="505" y="546.4292">importData()</text><text fill="#000000" font-family="sans-serif" font-size="11" lengthAdjust="spacingAndGlyphs" textLength="80" x="505" y="559.2339">prepareData()</text><text fill="#000000" font-family="sans-serif" font-size="11" lengthAdjust="spacingAndGlyphs" textLength="86" x="505" y="572.0386">annotateData()</text><text fill="#000000" font-family="sans-serif" font-size="11" lengthAdjust="spacingAndGlyphs" textLength="73" x="505" y="584.8433">mergeData()</text><text fill="#000000" font-family="sans-serif" font-size="11" lengthAdjust="spacingAndGlyphs" textLength="84" x="505" y="597.6479">describeData()</text><!--MD5=[0260a0a4457bad3542369c7ff9979c17]
class DataModule--><rect codeLine="41" fill="#FEFECE" filter="url(#fvirwllji5rm0)" height="163.2422" id="DataModule" style="stroke: #A80036; stroke-width: 1.5;" width="107" x="414" y="719"/><ellipse cx="430.8" cy="735" fill="#A9DCDF" rx="11" ry="11" style="stroke: #A80036; stroke-width: 1.0;"/><path d="M432.8781,736.8125 L433.2688,737.7969 L432.8781,737.7969 C432.425,737.7969 432.3156,737.8125 432.1594,737.9219 C431.9094,738.0781 431.7531,738.3594 431.7531,738.6563 C431.7531,738.9219 431.8938,739.1719 432.1125,739.3281 C432.2531,739.4531 432.4563,739.5 432.8781,739.5 L435.2375,739.5 C435.5969,739.5 435.8156,739.4688 435.9563,739.375 C436.2063,739.2344 436.3625,738.9375 436.3625,738.6563 C436.3625,738.375 436.2219,738.125 436.0031,737.9688 C435.8313,737.8281 435.675,737.7969 435.2063,737.7969 L431.8156,729.5938 L428.1438,729.5938 C427.6906,729.5938 427.5656,729.6094 427.4094,729.7031 C427.1594,729.875 427.0031,730.1563 427.0031,730.4375 C427.0031,730.7188 427.1438,730.9688 427.3625,731.1406 C427.5344,731.25 427.7063,731.2813 428.1438,731.2813 L429.2219,731.2813 L426.5813,737.7969 C426.1594,737.7969 426.0031,737.8125 425.8469,737.9219 C425.5969,738.0781 425.4406,738.3594 425.4406,738.6563 C425.4406,739.2188 425.8156,739.5 426.5656,739.5 L428.8313,739.5 C429.1906,739.5 429.4094,739.4688 429.5344,739.375 C429.8,739.2344 429.9406,738.9375 429.9406,738.6563 C429.9406,738.375 429.8156,738.125 429.5969,737.9531 C429.425,737.8281 429.2844,737.7969 428.8313,737.7969 L428.4406,737.7969 L428.8313,736.8125 L432.8781,736.8125 Z M432.175,735.1094 L429.5031,735.1094 L430.8469,731.8438 L432.175,735.1094 Z "/><text fill="#000000" font-family="sans-serif" font-size="12" font-style="italic" lengthAdjust="spacingAndGlyphs" textLength="71" x="445.2" y="739.1543">DataModule</text><line style="stroke: #A80036; stroke-width: 1.5;" x1="415" x2="520" y1="751" y2="751"/><text fill="#000000" font-family="sans-serif" font-size="11" lengthAdjust="spacingAndGlyphs" textLength="33" x="420" y="765.2104">name</text><text fill="#000000" font-family="sans-serif" font-size="11" lengthAdjust="spacingAndGlyphs" textLength="38" x="420" y="778.0151">source</text><text fill="#000000" font-family="sans-serif" font-size="11" lengthAdjust="spacingAndGlyphs" textLength="50" x="420" y="790.8198">depends</text><text fill="#000000" font-family="sans-serif" font-size="11" lengthAdjust="spacingAndGlyphs" textLength="95" x="420" y="803.6245">productionReady</text><line style="stroke: #A80036; stroke-width: 1.5;" x1="415" x2="520" y1="810.2188" y2="810.2188"/><text fill="#000000" font-family="sans-serif" font-size="11" lengthAdjust="spacingAndGlyphs" textLength="71" x="420" y="824.4292">importData()</text><text fill="#000000" font-family="sans-serif" font-size="11" lengthAdjust="spacingAndGlyphs" textLength="80" x="420" y="837.2339">prepareData()</text><text fill="#000000" font-family="sans-serif" font-size="11" lengthAdjust="spacingAndGlyphs" textLength="86" x="420" y="850.0386">annotateData()</text><text fill="#000000" font-family="sans-serif" font-size="11" lengthAdjust="spacingAndGlyphs" textLength="73" x="420" y="862.8433">mergeData()</text><text fill="#000000" font-family="sans-serif" font-size="11" lengthAdjust="spacingAndGlyphs" textLength="84" x="420" y="875.6479">describeData()</text><!--MD5=[5fe9599c20a2565dd44c4a6baa11655b]
class logging--><rect codeLine="52" fill="#FEFECE" filter="url(#fvirwllji5rm0)" height="60.8047" id="logging" style="stroke: #A80036; stroke-width: 1.5;" width="78" x="754.5" y="770"/><ellipse cx="769.95" cy="786" fill="#ADD1B2" rx="11" ry="11" style="stroke: #A80036; stroke-width: 1.0;"/><path d="M772.2938,781.6719 C771.3563,781.2344 770.7625,781.0938 769.8875,781.0938 C767.2625,781.0938 765.2625,783.1719 765.2625,785.8906 L765.2625,787.0156 C765.2625,789.5938 767.3719,791.4844 770.2625,791.4844 C771.4813,791.4844 772.6375,791.1875 773.3875,790.6406 C773.9656,790.2344 774.2938,789.7813 774.2938,789.3906 C774.2938,788.9375 773.9031,788.5469 773.4344,788.5469 C773.2156,788.5469 773.0125,788.625 772.825,788.8125 C772.3719,789.2969 772.3719,789.2969 772.1844,789.3906 C771.7625,789.6563 771.075,789.7813 770.3094,789.7813 C768.2625,789.7813 766.9656,788.6875 766.9656,786.9844 L766.9656,785.8906 C766.9656,784.1094 768.2156,782.7969 769.95,782.7969 C770.5281,782.7969 771.1375,782.9531 771.6063,783.2031 C772.0906,783.4844 772.2625,783.7031 772.3563,784.1094 C772.4188,784.5156 772.45,784.6406 772.5906,784.7656 C772.7313,784.9063 772.9656,785.0156 773.1844,785.0156 C773.45,785.0156 773.7156,784.875 773.8875,784.6563 C773.9969,784.5 774.0281,784.3125 774.0281,783.8906 L774.0281,782.4688 C774.0281,782.0313 774.0125,781.9063 773.9188,781.75 C773.7625,781.4844 773.4813,781.3438 773.1844,781.3438 C772.8875,781.3438 772.6844,781.4375 772.4656,781.75 L772.2938,781.6719 Z "/><text fill="#000000" font-family="sans-serif" font-size="12" lengthAdjust="spacingAndGlyphs" textLength="45" x="784.05" y="790.1543">logging</text><line style="stroke: #A80036; stroke-width: 1.5;" x1="755.5" x2="831.5" y1="802" y2="802"/><line style="stroke: #A80036; stroke-width: 1.5;" x1="755.5" x2="831.5" y1="810" y2="810"/><text fill="#000000" font-family="sans-serif" font-size="11" lengthAdjust="spacingAndGlyphs" textLength="66" x="760.5" y="824.2104">getLogger()</text><!--MD5=[73cc198a8cd450520497f362cb874522]
class utils--><rect codeLine="54" fill="#FEFECE" filter="url(#fvirwllji5rm0)" height="137.6328" id="utils" style="stroke: #A80036; stroke-width: 1.5;" width="163" x="556" y="731.5"/><ellipse cx="621.25" cy="747.5" fill="#ADD1B2" rx="11" ry="11" style="stroke: #A80036; stroke-width: 1.0;"/><path d="M623.5938,743.1719 C622.6563,742.7344 622.0625,742.5938 621.1875,742.5938 C618.5625,742.5938 616.5625,744.6719 616.5625,747.3906 L616.5625,748.5156 C616.5625,751.0938 618.6719,752.9844 621.5625,752.9844 C622.7813,752.9844 623.9375,752.6875 624.6875,752.1406 C625.2656,751.7344 625.5938,751.2813 625.5938,750.8906 C625.5938,750.4375 625.2031,750.0469 624.7344,750.0469 C624.5156,750.0469 624.3125,750.125 624.125,750.3125 C623.6719,750.7969 623.6719,750.7969 623.4844,750.8906 C623.0625,751.1563 622.375,751.2813 621.6094,751.2813 C619.5625,751.2813 618.2656,750.1875 618.2656,748.4844 L618.2656,747.3906 C618.2656,745.6094 619.5156,744.2969 621.25,744.2969 C621.8281,744.2969 622.4375,744.4531 622.9063,744.7031 C623.3906,744.9844 623.5625,745.2031 623.6563,745.6094 C623.7188,746.0156 623.75,746.1406 623.8906,746.2656 C624.0313,746.4063 624.2656,746.5156 624.4844,746.5156 C624.75,746.5156 625.0156,746.375 625.1875,746.1563 C625.2969,746 625.3281,745.8125 625.3281,745.3906 L625.3281,743.9688 C625.3281,743.5313 625.3125,743.4063 625.2188,743.25 C625.0625,742.9844 624.7813,742.8438 624.4844,742.8438 C624.1875,742.8438 623.9844,742.9375 623.7656,743.25 L623.5938,743.1719 Z "/><text fill="#000000" font-family="sans-serif" font-size="12" lengthAdjust="spacingAndGlyphs" textLength="24" x="641.75" y="751.6543">utils</text><line style="stroke: #A80036; stroke-width: 1.5;" x1="557" x2="718" y1="763.5" y2="763.5"/><text fill="#000000" font-family="sans-serif" font-size="11" lengthAdjust="spacingAndGlyphs" textLength="9" x="562" y="777.7104">...</text><line style="stroke: #A80036; stroke-width: 1.5;" x1="557" x2="718" y1="784.3047" y2="784.3047"/><text fill="#000000" font-family="sans-serif" font-size="11" lengthAdjust="spacingAndGlyphs" textLength="67" x="562" y="798.5151">nanableOr()</text><text fill="#000000" font-family="sans-serif" font-size="11" lengthAdjust="spacingAndGlyphs" textLength="106" x="562" y="811.3198">combineBoolCols()</text><text fill="#000000" font-family="sans-serif" font-size="11" lengthAdjust="spacingAndGlyphs" textLength="125" x="562" y="824.1245">castColumnsToBools()</text><text fill="#000000" font-family="sans-serif" font-size="11" lengthAdjust="spacingAndGlyphs" textLength="128" x="562" y="836.9292">castColumnsToUpper()</text><text fill="#000000" font-family="sans-serif" font-size="11" lengthAdjust="spacingAndGlyphs" textLength="151" x="562" y="849.7339">castColumnsToDateTime()</text><text fill="#000000" font-family="sans-serif" font-size="11" lengthAdjust="spacingAndGlyphs" textLength="25" x="562" y="862.5386">...  ()</text><!--MD5=[77f1f4ce9328a7ae000e0d948fa0bdac]
class validate--><rect codeLine="63" fill="#FEFECE" filter="url(#fvirwllji5rm0)" height="150.4375" id="validate" style="stroke: #A80036; stroke-width: 1.5;" width="79" x="868" y="725.5"/><ellipse cx="883" cy="741.5" fill="#ADD1B2" rx="11" ry="11" style="stroke: #A80036; stroke-width: 1.0;"/><path d="M885.3438,737.1719 C884.4063,736.7344 883.8125,736.5938 882.9375,736.5938 C880.3125,736.5938 878.3125,738.6719 878.3125,741.3906 L878.3125,742.5156 C878.3125,745.0938 880.4219,746.9844 883.3125,746.9844 C884.5313,746.9844 885.6875,746.6875 886.4375,746.1406 C887.0156,745.7344 887.3438,745.2813 887.3438,744.8906 C887.3438,744.4375 886.9531,744.0469 886.4844,744.0469 C886.2656,744.0469 886.0625,744.125 885.875,744.3125 C885.4219,744.7969 885.4219,744.7969 885.2344,744.8906 C884.8125,745.1563 884.125,745.2813 883.3594,745.2813 C881.3125,745.2813 880.0156,744.1875 880.0156,742.4844 L880.0156,741.3906 C880.0156,739.6094 881.2656,738.2969 883,738.2969 C883.5781,738.2969 884.1875,738.4531 884.6563,738.7031 C885.1406,738.9844 885.3125,739.2031 885.4063,739.6094 C885.4688,740.0156 885.5,740.1406 885.6406,740.2656 C885.7813,740.4063 886.0156,740.5156 886.2344,740.5156 C886.5,740.5156 886.7656,740.375 886.9375,740.1563 C887.0469,740 887.0781,739.8125 887.0781,739.3906 L887.0781,737.9688 C887.0781,737.5313 887.0625,737.4063 886.9688,737.25 C886.8125,736.9844 886.5313,736.8438 886.2344,736.8438 C885.9375,736.8438 885.7344,736.9375 885.5156,737.25 L885.3438,737.1719 Z "/><text fill="#000000" font-family="sans-serif" font-size="12" lengthAdjust="spacingAndGlyphs" textLength="47" x="897" y="745.6543">validate</text><line style="stroke: #A80036; stroke-width: 1.5;" x1="869" x2="946" y1="757.5" y2="757.5"/><line style="stroke: #A80036; stroke-width: 1.5;" x1="869" x2="946" y1="765.5" y2="765.5"/><text fill="#000000" font-family="sans-serif" font-size="11" lengthAdjust="spacingAndGlyphs" textLength="60" x="874" y="779.7104">datetime()</text><text fill="#000000" font-family="sans-serif" font-size="11" lengthAdjust="spacingAndGlyphs" textLength="22" x="874" y="792.5151">int()</text><text fill="#000000" font-family="sans-serif" font-size="11" lengthAdjust="spacingAndGlyphs" textLength="50" x="874" y="805.3198">country()</text><text fill="#000000" font-family="sans-serif" font-size="11" lengthAdjust="spacingAndGlyphs" textLength="52" x="874" y="818.1245">number()</text><text fill="#000000" font-family="sans-serif" font-size="11" lengthAdjust="spacingAndGlyphs" textLength="24" x="874" y="830.9292">list()</text><text fill="#000000" font-family="sans-serif" font-size="11" lengthAdjust="spacingAndGlyphs" textLength="32" x="874" y="843.7339">bool()</text><text fill="#000000" font-family="sans-serif" font-size="11" lengthAdjust="spacingAndGlyphs" textLength="22" x="874" y="856.5386">str()</text><text fill="#000000" font-family="sans-serif" font-size="11" lengthAdjust="spacingAndGlyphs" textLength="17" x="874" y="869.3433">...()</text><path d="M6,502.5 L6,542.7656 L333,542.7656 L333,512.5 L323,502.5 L6,502.5 " fill="#FBFB77" filter="url(#fvirwllji5rm0)" style="stroke: #A80036; stroke-width: 1.0;"/><path d="M323,502.5 L323,512.5 L333,512.5 L323,502.5 " fill="#FBFB77" style="stroke: #A80036; stroke-width: 1.0;"/><text fill="#000000" font-family="sans-serif" font-size="13" lengthAdjust="spacingAndGlyphs" textLength="302" x="12" y="519.5669">wikiData depends on iGEMTeams, main will run</text><text fill="#000000" font-family="sans-serif" font-size="13" lengthAdjust="spacingAndGlyphs" textLength="240" x="12" y="534.6997">them in the right order automatically.</text><path d="M742,962 L742,1017.3984 L997,1017.3984 L997,972 L987,962 L742,962 " fill="#FBFB77" filter="url(#fvirwllji5rm0)" style="stroke: #A80036; stroke-width: 1.0;"/><path d="M987,962 L987,972 L997,972 L987,962 " fill="#FBFB77" style="stroke: #A80036; stroke-width: 1.0;"/><text fill="#000000" font-family="sans-serif" font-size="13" lengthAdjust="spacingAndGlyphs" textLength="208" x="748" y="979.0669">logging is used by every module</text><text fill="#000000" font-family="sans-serif" font-size="13" lengthAdjust="spacingAndGlyphs" textLength="234" x="748" y="994.1997">thus standardizing output from code</text><text fill="#000000" font-family="sans-serif" font-size="13" lengthAdjust="spacingAndGlyphs" textLength="171" x="748" y="1009.3325">written by different people</text><path d="M418.5,954 L418.5,1024.5313 A0,0 0 0 0 418.5,1024.5313 L706.5,1024.5313 A0,0 0 0 0 706.5,1024.5313 L706.5,964 L696.5,954 L580.404,954 L610.211,869.54 L572.404,954 L418.5,954 A0,0 0 0 0 418.5,954 " fill="#FBFB77" filter="url(#fvirwllji5rm0)" style="stroke: #A80036; stroke-width: 1.0;"/><path d="M696.5,954 L696.5,964 L706.5,964 L696.5,954 " fill="#FBFB77" style="stroke: #A80036; stroke-width: 1.0;"/><text fill="#000000" font-family="sans-serif" font-size="13" lengthAdjust="spacingAndGlyphs" textLength="84" x="424.5" y="971.0669">utils contains</text><text fill="#000000" font-family="sans-serif" font-size="13" font-style="italic" lengthAdjust="spacingAndGlyphs" textLength="37" x="512.5" y="971.0669">many</text><text fill="#000000" font-family="sans-serif" font-size="13" lengthAdjust="spacingAndGlyphs" textLength="89" x="553.5" y="971.0669">functions that</text><text fill="#000000" font-family="sans-serif" font-size="13" lengthAdjust="spacingAndGlyphs" textLength="267" x="424.5" y="986.1997">are commonly used in manipulating data.</text><text fill="#000000" font-family="sans-serif" font-size="13" lengthAdjust="spacingAndGlyphs" textLength="261" x="424.5" y="1001.3325">The functions should be written with unit</text><text fill="#000000" font-family="sans-serif" font-size="13" lengthAdjust="spacingAndGlyphs" textLength="223" x="424.5" y="1016.4653">tests and with safe drop functions.</text><path d="M75.5,954 L75.5,1024.5313 A0,0 0 0 0 75.5,1024.5313 L383.5,1024.5313 A0,0 0 0 0 383.5,1024.5313 L383.5,964 L373.5,954 L277.46,954 L413.791,843.7 L269.46,954 L75.5,954 A0,0 0 0 0 75.5,954 " fill="#FBFB77" filter="url(#fvirwllji5rm0)" style="stroke: #A80036; stroke-width: 1.0;"/><path d="M373.5,954 L373.5,964 L383.5,964 L373.5,954 " fill="#FBFB77" style="stroke: #A80036; stroke-width: 1.0;"/><text fill="#000000" font-family="sans-serif" font-size="13" lengthAdjust="spacingAndGlyphs" textLength="287" x="81.5" y="971.0669">DataModule is an Abstract Class that defines</text><text fill="#000000" font-family="sans-serif" font-size="13" lengthAdjust="spacingAndGlyphs" textLength="265" x="81.5" y="986.1997">how modules need to be written. Classes</text><text fill="#000000" font-family="sans-serif" font-size="13" lengthAdjust="spacingAndGlyphs" textLength="214" x="81.5" y="1001.3325">that don't fit the schema can't be</text><text fill="#000000" font-family="sans-serif" font-size="13" lengthAdjust="spacingAndGlyphs" textLength="251" x="81.5" y="1016.4653">instantiated (or tested) without editing.</text><path d="M1020,228.5 L1020,260 L900.111,264 L1020,268 L1020,299.0313 A0,0 0 0 0 1020,299.0313 L1287,299.0313 A0,0 0 0 0 1287,299.0313 L1287,238.5 L1277,228.5 L1020,228.5 A0,0 0 0 0 1020,228.5 " fill="#FBFB77" filter="url(#fvirwllji5rm0)" style="stroke: #A80036; stroke-width: 1.0;"/><path d="M1277,228.5 L1277,238.5 L1287,238.5 L1277,228.5 " fill="#FBFB77" style="stroke: #A80036; stroke-width: 1.0;"/><text fill="#000000" font-family="sans-serif" font-size="13" lengthAdjust="spacingAndGlyphs" textLength="220" x="1026" y="245.5669">Main coordinates the modules and</text><text fill="#000000" font-family="sans-serif" font-size="13" lengthAdjust="spacingAndGlyphs" textLength="223" x="1026" y="260.6997">runs them in the right order. It also</text><text fill="#000000" font-family="sans-serif" font-size="13" lengthAdjust="spacingAndGlyphs" textLength="243" x="1026" y="275.8325">manages user interaction with TARCH</text><text fill="#000000" font-family="sans-serif" font-size="13" lengthAdjust="spacingAndGlyphs" textLength="246" x="1026" y="290.9653">from the command line/within python.</text><path d="M1032,962 L1032,1017.3984 A0,0 0 0 0 1032,1017.3984 L1341,1017.3984 A0,0 0 0 0 1341,1017.3984 L1341,972 L1331,962 L1150.96,962 L947.178,828.094 L1142.96,962 L1032,962 A0,0 0 0 0 1032,962 " fill="#FBFB77" filter="url(#fvirwllji5rm0)" style="stroke: #A80036; stroke-width: 1.0;"/><path d="M1331,962 L1331,972 L1341,972 L1331,962 " fill="#FBFB77" style="stroke: #A80036; stroke-width: 1.0;"/><text fill="#000000" font-family="sans-serif" font-size="13" lengthAdjust="spacingAndGlyphs" textLength="284" x="1038" y="979.0669">validate is used by main to ensure that data</text><text fill="#000000" font-family="sans-serif" font-size="13" lengthAdjust="spacingAndGlyphs" textLength="277" x="1038" y="994.1997">meets specifications (eg. data is formatted</text><text fill="#000000" font-family="sans-serif" font-size="13" lengthAdjust="spacingAndGlyphs" textLength="226" x="1038" y="1009.3325">correctly, column isn't all NaN, etc.)</text><path d="M445,44 L445,84.2656 L774,84.2656 L774,54 L764,44 L445,44 " fill="#FBFB77" filter="url(#fvirwllji5rm0)" style="stroke: #A80036; stroke-width: 1.0;"/><path d="M764,44 L764,54 L774,54 L764,44 " fill="#FBFB77" style="stroke: #A80036; stroke-width: 1.0;"/><text fill="#000000" font-family="sans-serif" font-size="13" lengthAdjust="spacingAndGlyphs" textLength="301" x="451" y="61.0669">Sphinx is used to autogenerate documentation</text><text fill="#000000" font-family="sans-serif" font-size="13" lengthAdjust="spacingAndGlyphs" textLength="308" x="451" y="76.1997">from inline comments and function docu-strings</text><!--MD5=[7e2430b97f055c6fbe2106c26b4024e7]
reverse link DataModule to DataHandler1--><path d="M510.527,702.191 C518.511,692.019 527.787,682.897 538.5,676 C570.033,655.7 589.725,686.227 622.5,668 C649.227,653.136 671.493,628.79 688.841,604.282 " fill="none" id="DataModule-backto-DataHandler1" style="stroke: #A80036; stroke-width: 1.0; stroke-dasharray: 7.0,7.0;"/><polygon fill="none" points="516.14,706.382,499.023,718.873,504.615,698.434,516.14,706.382" style="stroke: #A80036; stroke-width: 1.0;"/><!--MD5=[2132f8d6e46970da744bc750639b0353]
reverse link DataModule to DataHandler2--><path d="M498.236,699.697 C507.914,668.274 518.474,633.983 527.686,604.073 " fill="none" id="DataModule-backto-DataHandler2" style="stroke: #A80036; stroke-width: 1.0; stroke-dasharray: 7.0,7.0;"/><polygon fill="none" points="504.921,701.774,492.345,718.827,491.542,697.653,504.921,701.774" style="stroke: #A80036; stroke-width: 1.0;"/><!--MD5=[8a47872d0a7f9d7ece97c1c342896e48]
link main to DataHandler1--><path codeLine="78" d="M825.295,307.069 C810.192,341.968 788.232,392.714 769.466,436.079 " fill="none" id="main-to-DataHandler1" style="stroke: #A80036; stroke-width: 1.0;"/><polygon fill="#A80036" points="767.428,440.789,774.6734,434.1179,769.4138,436.2002,767.3314,430.9406,767.428,440.789" style="stroke: #A80036; stroke-width: 1.0;"/><!--MD5=[3f3b19225deedfaff0420a5d46b4a067]
link main to DataHandler2--><path codeLine="79" d="M813.588,307.037 C804.706,316.517 794.185,325.418 782.5,331 C758.385,342.52 685.32,325.089 662.5,339 C626.375,361.023 600.573,399.791 583.081,435.948 " fill="none" id="main-to-DataHandler2" style="stroke: #A80036; stroke-width: 1.0;"/><polygon fill="#A80036" points="580.775,440.801,588.2505,434.3887,582.9209,436.2849,581.0247,430.9553,580.775,440.801" style="stroke: #A80036; stroke-width: 1.0;"/><!--MD5=[2b39a3d658c81b2910af7ea88cb693e5]
link main to logging--><path codeLine="80" d="M839.535,307.388 C829.934,410.016 805.583,670.329 796.758,764.675 " fill="none" id="main-to-logging" style="stroke: #A80036; stroke-width: 1.0;"/><polygon fill="#A80036" points="796.274,769.846,801.0948,761.2577,796.7397,764.8677,793.1296,760.5126,796.274,769.846" style="stroke: #A80036; stroke-width: 1.0;"/><!--MD5=[81d4ae24e965ca4ea3395373901859a8]
link main to validate--><path codeLine="81" d="M848.575,307.388 C859.267,396.679 884.251,605.331 898.004,720.192 " fill="none" id="main-to-validate" style="stroke: #A80036; stroke-width: 1.0;"/><polygon fill="#A80036" points="898.61,725.251,901.5122,715.8394,898.0159,720.2864,893.5689,716.7901,898.61,725.251" style="stroke: #A80036; stroke-width: 1.0;"/><!--MD5=[4f5c8fd1bc4be0adfd43adfa123d86c4]
link DataHandler1 to logging--><path codeLine="82" d="M750.308,604.073 C762.087,657.369 776.94,724.574 785.804,764.678 " fill="none" id="DataHandler1-to-logging" style="stroke: #A80036; stroke-width: 1.0;"/><polygon fill="#A80036" points="786.961,769.912,788.9223,760.2604,785.8809,765.0301,781.1112,761.9886,786.961,769.912" style="stroke: #A80036; stroke-width: 1.0;"/><!--MD5=[fbc581bf9a4a6bbb9c2c58b30d2c5543]
link DataHandler2 to logging--><path codeLine="83" d="M596.269,604.085 C613.625,628.579 635.868,652.966 662.5,668 C691.307,684.262 709.635,656.697 736.5,676 C765.597,696.906 780.226,736.411 787.315,765.126 " fill="none" id="DataHandler2-to-logging" style="stroke: #A80036; stroke-width: 1.0;"/><polygon fill="#A80036" points="788.472,769.996,790.2859,760.3156,787.3176,765.1311,782.5021,762.1627,788.472,769.996" style="stroke: #A80036; stroke-width: 1.0;"/><!--MD5=[57e89065263ca3231e1be493de206d21]
link DataHandler1 to utils--><path codeLine="85" d="M704.767,604.073 C691.454,642.75 675.619,688.753 662.659,726.408 " fill="none" id="DataHandler1-to-utils" style="stroke: #A80036; stroke-width: 1.0;"/><polygon fill="#A80036" points="660.931,731.427,667.6418,724.2183,662.5579,726.6991,660.0771,721.6152,660.931,731.427" style="stroke: #A80036; stroke-width: 1.0;"/><!--MD5=[01c5db55cc296c38042dfefca5b21902]
link DataHandler2 to utils--><path codeLine="86" d="M577.314,604.073 C589.226,642.75 603.393,688.753 614.99,726.408 " fill="none" id="DataHandler2-to-utils" style="stroke: #A80036; stroke-width: 1.0;"/><polygon fill="#A80036" points="616.536,731.427,617.7103,721.6484,615.0646,726.6484,610.0646,724.0027,616.536,731.427" style="stroke: #A80036; stroke-width: 1.0;"/><!--MD5=[1ba8072fa4a5b4e15eedbdbdaf7703d2]
link Sphinx to TARCH--><path d="M365.5,92.63 C365.5,99.3259 365.5,106.9515 365.5,115.1771 C365.5,119.2898 365.5,123.5525 365.5,127.9239 C365.5,130.1096 365.5,132.3225 365.5,134.5574 " fill="none" id="Sphinx-TARCH" style="stroke: #A80036; stroke-width: 1.0;"/><polygon fill="#A80036" points="365.5,134.5574,369.5,125.5574,365.5,129.5574,361.5,125.5574,365.5,134.5574" style="stroke: #A80036; stroke-width: 1.0;"/><polygon fill="#A80036" points="365.5,87.328,361.5,96.328,365.5,92.328,369.5,96.328,365.5,87.328" style="stroke: #A80036; stroke-width: 1.0;"/><!--MD5=[9680d8215be89d8dfeccfc0040c7d49a]
link GMN7468 to wikiData--><path d="M333.152,522.5 C354.792,522.5 376.4318,522.5 398.0715,522.5 C408.8914,522.5 419.7113,522.5 430.5312,522.5 C435.9411,522.5 441.3511,522.5 446.761,522.5 C449.466,522.5 452.171,522.5 454.876,522.5 C455.0451,522.5 455.2141,522.5 455.3832,522.5 " fill="none" id="GMN7468-wikiData" style="stroke: #A80036; stroke-width: 1.0; stroke-dasharray: 7.0,7.0;"/><!--MD5=[fc4855d2842ae98c4b1f5cfe2fcd69fe]
link logging to GMN7471--><path d="M804.796,831.269 C816.029,860.595 833.931,906.598 850.5,946 C852.63,951.0662 854.97,956.4397 857.256,961.5997 " fill="none" id="logging-GMN7471" style="stroke: #A80036; stroke-width: 1.0; stroke-dasharray: 7.0,7.0;"/><!--MD5=[0c4bf807130585aa47f673ed66f9ab59]
link Sphinx to GMN7486--><path d="M410.297,64 C421.839,64 433.382,64 444.924,64 " fill="none" id="Sphinx-GMN7486" style="stroke: #A80036; stroke-width: 1.0; stroke-dasharray: 7.0,7.0;"/><!--MD5=[c33d7e9a4f129ee7234bc83594e13a7d]
@startuml
package "Documentation"{
  package "Sphinx" <<Frame>> {
  }
}

package "TARCH" {
 package "Main" <<Rectangle>> #DDDDDD {
    main : getDataModules()
    main : toposort()
    main : MasterFramework
  }

package "Modules" {
  package "iGEMTeams" <<Rectangle>> #DDDDDD {
    class "DataHandler" as DataHandler1
    DataHandler1 : name
    DataHandler1 : source
    DataHandler1 : depends
    DataHandler1 : productionReady
    DataHandler1 : importData()
    DataHandler1 : prepareData()
    DataHandler1 : annotateData()
    DataHandler1 : mergeData()
    DataHandler1 : describeData()
  }

   package "wikiData" <<Rectangle>> #DDDDDD {
    class "DataHandler" as DataHandler2
    DataHandler2 : name
    DataHandler2 : source
    DataHandler2 : depends
    DataHandler2 : productionReady
    DataHandler2 : importData()
    DataHandler2 : prepareData()
    DataHandler2 : annotateData()
    DataHandler2 : mergeData()
    DataHandler2 : describeData()
  }
}
  package "DataUtils" <<Rectangle>> #DDDDDD {
    abstract class DataModule
    DataModule : name
    DataModule : source
    DataModule : depends
    DataModule : productionReady
    DataModule : importData()
    DataModule : prepareData()
    DataModule : annotateData()
    DataModule : mergeData()
    DataModule : describeData()
    
    class logging
    logging : getLogger()
    class utils
    utils : nanableOr()
    utils : combineBoolCols()
    utils : castColumnsToBools()
    utils : castColumnsToUpper()
    utils : castColumnsToDateTime()
    utils : ...
    utils : ...  ()
    
    class validate
    validate : datetime()
    validate : int()
    validate : country()
    validate : number()
    validate : list()
    validate : bool()
    validate : str()
    validate : ...()
  }
 }

class DataHandler1 implements DataModule
class DataHandler2 implements DataModule

main -down-> DataHandler1
main -down-> DataHandler2
main - -> logging
main - -> validate
DataHandler1 -down-> logging
DataHandler2 -down-> logging

DataHandler1 -down-> utils
DataHandler2 -down-> utils

Sphinx <- -> TARCH

note left of wikiData
  wikiData depends on iGEMTeams, main will run 
  them in the right order automatically.
end note

note bottom of logging
  logging is used by every module
  thus standardizing output from code
  written by different people
end note

note bottom of utils
  utils contains <i>many</i> functions that
  are commonly used in manipulating data.
  The functions should be written with unit
  tests and with safe drop functions.
end note

note bottom of DataModule
  DataModule is an Abstract Class that defines
  how modules need to be written. Classes
  that don't fit the schema can't be 
  instantiated (or tested) without editing.
end note

note right of main
  Main coordinates the modules and 
  runs them in the right order. It also
  manages user interaction with TARCH
  from the command line/within python.
end note

note bottom of validate
  validate is used by main to ensure that data 
  meets specifications (eg. data is formatted 
  correctly, column isn't all NaN, etc.)
end note

note right of Sphinx
  Sphinx is used to autogenerate documentation 
  from inline comments and function docu-strings
end note
@enduml

PlantUML version 1.2020.17beta5(Unknown compile time)
(GPL source distribution)
Java Runtime: Java(TM) SE Runtime Environment
JVM: Java HotSpot(TM) 64-Bit Server VM
Default Encoding: UTF-8
Language: en
Country: US
--></g></svg>